<?xml version="1.0" standalone="no"?>
<!DOCTYPE svg PUBLIC "-//W3C//DTD SVG 20010904//EN"
 "http://www.w3.org/TR/2001/REC-SVG-20010904/DTD/svg10.dtd">
<svg version="1.0" xmlns="http://www.w3.org/2000/svg"
 width="716.000000pt" height="172.000000pt" viewBox="0 0 716.000000 172.000000"
 preserveAspectRatio="xMidYMid meet">

<g transform="translate(0.000000,172.000000) scale(0.100000,-0.100000)"
fill="#000000" stroke="none">
<path d="M0 860 l0 -860 3580 0 3580 0 0 860 0 860 -3580 0 -3580 0 0 -860z
m1072 776 c152 -39 266 -103 370 -210 158 -161 228 -333 228 -562 0 -422 -302
-744 -740 -788 -49 -5 -52 -4 -30 7 14 7 33 28 42 47 10 21 17 28 18 18 0 -24
36 -23 130 3 247 68 445 269 512 518 15 55 21 108 21 196 1 146 -15 213 -80
345 -40 80 -62 110 -138 185 -152 152 -308 215 -529 215 -149 0 -221 -16 -345
-76 -80 -39 -108 -60 -186 -138 -152 -152 -219 -312 -219 -526 0 -139 17 -210
78 -335 47 -94 160 -240 178 -229 6 4 6 -1 -1 -14 -6 -12 -15 -23 -20 -26 -14
-9 -128 121 -173 197 -22 37 -54 107 -71 155 -26 75 -31 105 -35 217 -5 159
14 252 82 390 109 220 315 377 557 424 93 18 251 12 351 -13z m-445 -122 c-3
-3 -12 -4 -19 -1 -8 3 -5 6 6 6 11 1 17 -2 13 -5z m128 -62 c-3 -3 -11 0 -18
7 -9 10 -8 11 6 5 10 -3 15 -9 12 -12z m82 12 c-3 -3 -12 -4 -19 -1 -8 3 -5 6
6 6 11 1 17 -2 13 -5z m146 -1 c-7 -2 -19 -2 -25 0 -7 3 -2 5 12 5 14 0 19 -2
13 -5z m-456 -25 c-3 -8 -6 -5 -6 6 -1 11 2 17 5 13 3 -3 4 -12 1 -19z m-10
-140 c-2 -24 -4 -7 -4 37 0 44 2 63 4 43 2 -21 2 -57 0 -80z m668 52 c27 -27
47 -50 44 -50 -3 0 -27 23 -54 50 -27 28 -47 50 -44 50 3 0 27 -22 54 -50z
m70 -91 c9 -17 15 -33 13 -35 -3 -2 -12 12 -21 31 -21 43 -13 47 8 4z m-762
-84 c-15 -30 -29 -53 -31 -51 -4 5 46 106 53 106 3 0 -7 -25 -22 -55z m5641
-517 c4 -10 16 -20 27 -23 12 -4 19 -16 19 -31 0 -22 -4 -24 -42 -24 -24 -1
-61 -7 -83 -15 -53 -19 -52 -20 -47 18 l5 32 -28 -28 c-34 -33 -62 -41 -121
-34 -51 5 -108 45 -138 96 -23 40 -32 142 -17 198 30 110 153 172 256 129 l35
-15 0 49 c0 62 -7 79 -37 91 -40 15 -23 37 67 81 l85 43 5 -275 c3 -151 9
-283 14 -292z m-3927 311 l108 -221 110 221 110 222 90 -3 c81 -3 90 -5 90
-22 0 -14 -10 -22 -32 -28 l-33 -9 0 -229 c0 -126 4 -240 9 -253 6 -14 23 -29
41 -36 22 -7 31 -16 28 -28 -3 -16 -16 -18 -118 -18 -109 0 -115 1 -118 21 -2
17 4 23 27 27 44 9 53 51 49 236 l-3 154 -100 -202 -99 -201 -51 0 -50 0 -102
203 -102 202 0 -155 c-1 -184 7 -224 49 -239 20 -7 30 -17 30 -31 0 -20 -4
-21 -117 -18 -104 3 -118 5 -121 21 -3 12 6 21 28 28 18 7 35 22 41 36 5 13 9
128 9 254 l0 230 -30 6 c-34 6 -44 17 -36 38 4 12 26 15 95 15 l90 0 108 -221z
m2540 6 c59 -118 110 -215 113 -215 3 0 52 97 109 216 l105 215 90 -3 c86 -3
91 -4 94 -25 3 -17 -2 -23 -16 -23 -53 0 -52 5 -52 -241 0 -248 4 -272 51
-288 20 -7 29 -17 29 -31 0 -20 -4 -21 -117 -18 -104 3 -118 5 -121 21 -2 12
6 21 26 28 46 16 52 43 51 227 l0 167 -102 -203 -102 -203 -50 3 -50 3 -97
195 -96 195 -1 -170 c-1 -182 7 -215 50 -215 14 0 19 -7 19 -25 l0 -25 -115 0
-115 0 0 25 c0 18 5 25 19 25 11 0 27 10 35 22 13 19 16 61 16 260 l0 239 -30
6 c-23 4 -30 11 -30 29 0 23 2 24 90 24 l90 0 107 -215z m1630 190 c11 -8 23
-23 26 -35 7 -28 -28 -70 -60 -70 -57 0 -82 61 -43 100 24 24 48 25 77 5z
m-5026 -32 c13 -16 12 -17 -3 -4 -17 13 -22 21 -14 21 2 0 10 -8 17 -17z
m-661 -3 c0 -5 -8 -10 -17 -10 -42 0 -66 -56 -43 -101 15 -27 73 -26 100 3 11
12 20 16 20 9 0 -24 -48 -61 -80 -61 -42 0 -90 47 -90 88 0 45 34 82 76 82 19
0 34 -4 34 -10z m720 -45 c19 -19 32 -35 29 -35 -3 0 -20 16 -39 35 -19 19
-32 35 -29 35 3 0 20 -16 39 -35z m-953 -7 c-3 -7 -5 -2 -5 12 0 14 2 19 5 13
2 -7 2 -19 0 -25z m542 -61 c-61 -41 -44 -117 26 -117 37 0 54 16 65 63 l8 32
1 -38 c2 -78 -85 -116 -145 -63 -56 48 -20 146 53 146 26 0 25 0 -8 -23z m441
10 c0 -2 -10 -12 -22 -23 l-23 -19 19 23 c18 21 26 27 26 19z m-983 -29 c-3
-8 -6 -5 -6 6 -1 11 2 17 5 13 3 -3 4 -12 1 -19z m5943 -171 c0 -184 8 -217
51 -217 14 0 19 -7 19 -25 l0 -25 -130 0 -130 0 0 25 c0 18 5 25 19 25 36 0
51 38 51 130 0 88 -15 130 -46 130 -8 0 -14 9 -14 19 0 14 18 28 63 49 34 16
71 37 82 46 11 8 23 16 28 16 4 0 7 -78 7 -173z m-2875 149 c31 -13 35 -13 35
0 0 8 10 14 24 14 20 0 27 -10 46 -59 32 -86 14 -104 -48 -50 -62 55 -129 73
-167 46 -13 -10 -16 -21 -12 -39 7 -28 20 -34 136 -68 101 -29 141 -68 141
-135 0 -41 -5 -52 -38 -85 -45 -45 -107 -59 -187 -43 -28 6 -51 7 -53 2 -5
-13 -48 -11 -59 4 -6 6 -25 40 -43 75 -32 61 -32 63 -14 77 17 12 23 10 60
-30 49 -54 96 -75 167 -75 61 0 83 16 73 53 -6 26 -44 46 -136 71 -76 22 -119
50 -136 93 -27 64 0 125 66 152 37 15 106 13 145 -3z m487 -10 l45 -24 42 25
41 24 0 -160 c0 -148 2 -163 20 -181 11 -11 25 -20 31 -20 6 0 9 -10 7 -22 -3
-20 -11 -24 -58 -29 -30 -4 -68 -12 -83 -18 -39 -15 -39 -15 -32 22 l7 32 -30
-29 c-67 -63 -190 -39 -248 47 -27 39 -29 49 -29 138 0 89 2 99 28 137 56 81
169 106 259 58z m1573 -10 c36 -28 80 -105 73 -127 -2 -6 -55 -33 -118 -61
-63 -27 -119 -53 -123 -58 -13 -11 21 -59 54 -76 42 -21 90 -17 132 11 20 14
37 30 37 36 0 6 7 6 20 -1 25 -14 25 -25 -2 -62 -68 -97 -259 -85 -331 20 -67
97 -52 252 32 311 47 34 73 41 133 38 43 -2 64 -10 93 -31z m1198 11 l46 -24
41 23 40 23 0 -137 c0 -152 10 -208 40 -217 13 -4 20 -15 20 -31 0 -22 -4 -24
-42 -24 -24 -1 -61 -7 -83 -15 -22 -8 -41 -15 -42 -15 -2 0 -3 14 -3 32 0 27
-2 29 -12 16 -42 -51 -120 -63 -188 -28 -93 47 -132 164 -95 286 34 115 166
167 278 111z m-3873 -131 c0 -78 5 -157 11 -174 17 -49 61 -53 122 -10 27 19
27 21 27 130 0 118 -10 148 -52 148 -13 0 -18 7 -18 25 0 25 0 25 94 25 l94 0
4 -152 c5 -163 9 -184 39 -193 12 -4 19 -16 19 -31 0 -22 -4 -24 -42 -24 -24
-1 -61 -7 -83 -15 -22 -8 -42 -15 -44 -15 -2 0 -1 21 2 46 l5 46 -36 -37 c-20
-20 -47 -41 -60 -46 -36 -14 -100 -11 -132 6 -50 26 -63 65 -68 205 -5 131
-14 160 -54 160 -13 0 -18 7 -18 25 0 25 0 25 95 25 l95 0 0 -144z m-2490 104
c12 -8 12 -10 -5 -10 -11 0 -27 5 -35 10 -12 8 -12 10 5 10 11 0 27 -5 35 -10z
m57 -16 c-3 -3 -12 -4 -19 -1 -8 3 -5 6 6 6 11 1 17 -2 13 -5z m813 -4 c-8 -5
-19 -10 -25 -10 -5 0 -3 5 5 10 8 5 20 10 25 10 6 0 3 -5 -5 -10z m-780 -15
c11 -13 7 -15 -26 -14 -31 2 -33 3 -11 6 15 2 25 9 22 14 -10 14 1 10 15 -6z
m294 -5 c34 -12 33 -21 -4 -42 -28 -16 -30 -16 -40 2 -24 45 -7 60 44 40z
m-413 -27 c-11 -5 -11 -7 0 -14 10 -6 5 -9 -16 -9 -29 1 -29 1 -11 15 11 8 25
15 30 14 6 0 5 -3 -3 -6z m87 -10 c-10 -2 -28 -2 -40 0 -13 2 -5 4 17 4 22 1
32 -1 23 -4z m52 0 c-8 -3 -28 -17 -45 -32 l-30 -26 29 33 c17 17 37 32 45 31
14 0 14 -1 1 -6z m110 -88 c45 -46 123 -75 205 -75 57 0 66 -3 84 -26 12 -15
21 -35 21 -46 0 -16 -3 -17 -20 -8 -18 9 -20 8 -20 -15 0 -28 -15 -34 -24 -9
-8 21 -26 8 -26 -19 0 -12 -5 -29 -10 -37 -8 -13 -11 -12 -23 4 -12 16 -14 15
-27 -23 -15 -46 -18 -48 -35 -24 -11 15 -15 10 -31 -41 -18 -59 -19 -59 -30
-30 l-12 28 -7 -32 c-9 -42 -22 -40 -41 5 -12 27 -18 33 -24 23 -7 -11 -11 -8
-19 13 -6 16 -11 35 -11 44 0 13 -3 13 -15 3 -13 -11 -15 -8 -17 16 -1 16 -1
42 0 57 2 24 -1 27 -18 22 -25 -8 -26 11 -6 60 13 31 13 35 0 35 -18 0 -17 10
1 34 13 17 12 21 -3 32 -16 11 -15 13 8 22 14 5 32 12 40 15 24 9 24 9 60 -28z
m581 12 c-10 -9 -11 -8 -5 6 3 10 9 15 12 12 3 -3 0 -11 -7 -18z m-39 -49 c-9
-9 -9 -15 1 -27 11 -14 10 -14 -6 -2 -13 10 -15 17 -6 27 6 8 14 14 17 14 3 0
1 -5 -6 -12z m-67 -59 l40 -43 -52 43 c-57 46 -78 70 -47 53 11 -6 37 -30 59
-53z m-59 -31 c27 -52 13 -62 -16 -11 -16 28 -34 54 -40 58 -5 3 -10 11 -10
17 0 16 49 -32 66 -64z m-649 30 c-3 -8 -6 -5 -6 6 -1 11 2 17 5 13 3 -3 4
-12 1 -19z m800 -100 c-2 -18 -4 -6 -4 27 0 33 2 48 4 33 2 -15 2 -42 0 -60z
m-810 10 c-2 -13 -4 -3 -4 22 0 25 2 35 4 23 2 -13 2 -33 0 -45z m794 -85
c-12 -20 -14 -14 -5 12 4 9 9 14 11 11 3 -2 0 -13 -6 -23z m-784 -120 c-2 -27
-3 -5 -3 47 0 52 1 74 3 48 2 -27 2 -69 0 -95z m743 44 c0 -2 -12 -14 -27 -28
l-28 -24 24 28 c23 25 31 32 31 24z m-100 -45 c0 -5 -7 -17 -15 -28 -14 -18
-14 -17 -4 9 12 27 19 34 19 19z m-426 -18 c3 -8 2 -12 -4 -9 -6 3 -10 10 -10
16 0 14 7 11 14 -7z m-17 -46 c-3 -8 -6 -5 -6 6 -1 11 2 17 5 13 3 -3 4 -12 1
-19z m172 -10 c-2 -28 -2 -29 -6 -8 -3 14 -10 28 -17 32 -7 5 -5 8 7 8 13 0
17 -8 16 -32z m-82 16 c-3 -3 -12 -4 -19 -1 -8 3 -5 6 6 6 11 1 17 -2 13 -5z
m40 0 c-3 -3 -12 -4 -19 -1 -8 3 -5 6 6 6 11 1 17 -2 13 -5z m-284 -39 c20 -8
55 -15 77 -15 22 0 40 -2 40 -5 0 -14 -30 -75 -37 -76 -4 -1 -18 -3 -29 -4
-12 -1 -26 -5 -32 -9 -16 -9 -52 11 -52 29 0 9 -6 12 -15 9 -18 -7 -21 36 -5
67 13 23 9 23 53 4z m144 -32 c-3 -10 -5 -4 -5 12 0 17 2 24 5 18 2 -7 2 -21
0 -30z m157 -18 c-29 -70 -15 -127 36 -149 8 -3 -10 -3 -41 0 -56 5 -100 17
-196 51 l-51 19 29 13 c16 7 36 25 44 39 8 15 14 23 15 19 0 -5 -4 -17 -10
-27 -8 -15 -4 -20 30 -34 22 -9 58 -20 80 -25 l40 -9 0 34 c0 33 23 104 34
104 3 0 -2 -16 -10 -35z m221 -25 c-4 -23 -9 -39 -11 -37 -3 2 -2 23 2 46 4
23 9 40 11 37 3 -3 2 -23 -2 -46z m-81 6 l58 2 -6 -32 c-7 -34 -45 -74 -56
-57 -3 6 -13 3 -23 -9 -21 -25 -40 -25 -63 -3 -10 10 -22 18 -28 18 -14 0 -20
39 -11 72 5 22 9 24 38 16 18 -4 58 -7 91 -7z m-509 -26 l20 -25 -22 19 c-13
11 -23 24 -23 29 0 6 1 8 3 6 1 -2 11 -15 22 -29z m50 -38 c-3 -3 -11 0 -18 7
-9 10 -8 11 6 5 10 -3 15 -9 12 -12z m48 -9 c-7 -2 -19 -2 -25 0 -7 3 -2 5 12
5 14 0 19 -2 13 -5z m354 -69 c-3 -3 -12 -4 -19 -1 -8 3 -5 6 6 6 11 1 17 -2
13 -5z"/>
<path d="M5865 916 c-39 -17 -55 -53 -55 -124 1 -80 29 -138 76 -158 30 -13
42 -13 66 -3 41 17 48 36 48 143 0 84 -3 98 -22 120 -28 32 -73 41 -113 22z"/>
<path d="M3856 899 c-23 -26 -26 -40 -26 -100 0 -114 38 -174 110 -174 68 0
80 22 80 137 0 140 -17 168 -100 168 -30 0 -44 -6 -64 -31z"/>
<path d="M5411 894 c-22 -28 -30 -124 -11 -124 6 0 37 14 70 30 66 34 73 50
39 94 -13 17 -30 26 -49 26 -19 0 -36 -9 -49 -26z"/>
<path d="M6643 915 c-49 -34 -57 -170 -13 -240 26 -42 84 -64 119 -46 43 24
53 54 50 150 -5 114 -23 145 -90 149 -28 2 -52 -3 -66 -13z"/>
</g>
</svg>
